<?xml version="1.0" ?><svg style="enable-background:new 0 0 256 256;" version="1.1" viewBox="0 0 256 256" xml:space="preserve" xmlns="http://www.w3.org/2000/svg" xmlns:xlink="http://www.w3.org/1999/xlink"><style type="text/css">
	.st0{fill:#D5E2EB;}
	.st1{fill:none;stroke:#00A388;stroke-width:4;stroke-miterlimit:10;}
	.st2{fill:#FFFFFF;}
	.st3{fill:#CC4E47;}
	.st4{fill:#EA685E;}
	.st5{fill:#4B687F;}
	.st6{fill:#2C3E50;}
	.st7{fill:#3E5063;}
	.st8{fill:#FFAB80;}
	.st9{filter:url(#Adobe_OpacityMaskFilter);}
	.st10{mask:url(#SVGID_2_);}
	.st11{fill:#F09A79;}
	.st12{fill:#00886F;}
	.st13{fill:#00A388;}
	.st14{fill:none;stroke:#3E5063;stroke-width:4;stroke-miterlimit:10;}
	.st15{fill:#FFD766;}
	.st16{fill:#5488B7;}
	.st17{fill:#8C623B;}
	.st18{fill:#E6E6E6;stroke:#3E5063;stroke-width:16;stroke-miterlimit:10;}
	.st19{opacity:0.6;}
	.st20{fill:#E6E6E6;}
	.st21{fill:none;stroke:#D5E2EB;stroke-width:5;stroke-miterlimit:10;}
	.st22{fill:#FFEC9F;}
	.st23{fill:#603813;}
	.st24{filter:url(#Adobe_OpacityMaskFilter_1_);}
	.st25{mask:url(#SVGID_1_);}
</style><g id="Layer_2"><circle class="st0" cx="128" cy="128" r="120"/></g><g id="Layer_1"><g><g><path class="st7" d="M194.41565,190.03311H61.58435c-1.97958,0-3.58435-1.60477-3.58435-3.58435V73.55123     c0-1.97958,1.60477-3.58434,3.58435-3.58434h132.8313c1.97958,0,3.58435,1.60477,3.58435,3.58434v112.89753     C198,188.42834,196.39523,190.03311,194.41565,190.03311z"/></g><g><path class="st2" d="M194.41565,186.03311H61.58435c-1.97958,0-3.58435-1.60477-3.58435-3.58435V65.96689h140v116.48187     C198,184.42834,196.39523,186.03311,194.41565,186.03311z"/></g><g><rect class="st13" height="18.54305" width="140" x="58" y="65.96689"/></g><g><g><circle class="st5" cx="161.21413" cy="75.6468" r="3.86313"/></g><g><circle class="st5" cx="173.73068" cy="75.6468" r="3.86313"/></g><g><circle class="st5" cx="186.24724" cy="75.6468" r="3.86313"/></g></g><g><g><path class="st13" d="M78.9986,99.55788h21.94765c1.37994,0,2.4986,1.11866,2.4986,2.4986v21.94765      c0,1.37994-1.11866,2.4986-2.4986,2.4986H78.9986c-1.37994,0-2.4986-1.11866-2.4986-2.4986v-21.94765      C76.5,100.67654,77.61866,99.55788,78.9986,99.55788z"/></g><g><path class="st5" d="M115.04609,105.63705h61.87847c1.42108,0,2.57544-1.15033,2.57544-2.57745      c0-1.42159-1.15486-2.57543-2.57544-2.57543h-61.87847c-1.42611,0-2.57744,1.15536-2.57744,2.57543      C112.46815,104.48571,113.61948,105.63705,115.04609,105.63705z"/></g><g><path class="st5" d="M115.04609,115.60674h61.87847c1.42108,0,2.57544-1.15032,2.57544-2.57744      c0-1.42159-1.15486-2.57543-2.57544-2.57543h-61.87847c-1.42611,0-2.57744,1.15535-2.57744,2.57543      C112.46815,114.45541,113.61948,115.60674,115.04609,115.60674z"/></g><g><path class="st5" d="M115.04609,125.57643h34.93111c1.42108,0,2.57544-1.15033,2.57544-2.57745      c0-1.42159-1.15486-2.57543-2.57544-2.57543h-34.93111c-1.42611,0-2.57744,1.15536-2.57744,2.57543      C112.46815,124.42459,113.61948,125.57643,115.04609,125.57643z"/></g></g><g><g><path class="st13" d="M78.9986,141.55788h21.94765c1.37994,0,2.4986,1.11867,2.4986,2.4986v21.94766      c0,1.37993-1.11866,2.4986-2.4986,2.4986H78.9986c-1.37994,0-2.4986-1.11867-2.4986-2.4986v-21.94766      C76.5,142.67654,77.61866,141.55788,78.9986,141.55788z"/></g><g><path class="st5" d="M115.04609,147.63704h61.87847c1.42108,0,2.57544-1.15033,2.57544-2.57744      c0-1.42159-1.15486-2.57542-2.57544-2.57542h-61.87847c-1.42611,0-2.57744,1.15535-2.57744,2.57542      C112.46815,146.48572,113.61948,147.63704,115.04609,147.63704z"/></g><g><path class="st5" d="M115.04609,157.60674h61.87847c1.42108,0,2.57544-1.15033,2.57544-2.57744      c0-1.42159-1.15486-2.57544-2.57544-2.57544h-61.87847c-1.42611,0-2.57744,1.15536-2.57744,2.57544      C112.46815,156.4554,113.61948,157.60674,115.04609,157.60674z"/></g><g><path class="st5" d="M115.04609,167.57643h34.93111c1.42108,0,2.57544-1.15033,2.57544-2.57744      c0-1.42159-1.15486-2.57544-2.57544-2.57544h-34.93111c-1.42611,0-2.57744,1.15535-2.57744,2.57544      C112.46815,166.42459,113.61948,167.57643,115.04609,167.57643z"/></g></g></g></g></svg>